HIERARCHY
ROOT Hips
{
	OFFSET 0.000000 0.000000 0.000000
	CHANNELS 6 Xposition Yposition Zposition Zrotation Yrotation Xrotation
	JOINT Spine
	{
		OFFSET 0.000000 -0.000000 1.489414
		CHANNELS 6 Xposition Yposition Zposition Zrotation Yrotation Xrotation
		JOINT Spine1
		{
			OFFSET 0.000000 -0.000001 4.064482
			CHANNELS 6 Xposition Yposition Zposition Zrotation Yrotation Xrotation
			JOINT Neck
			{
				OFFSET 0.000000 -0.000001 4.427754
				CHANNELS 6 Xposition Yposition Zposition Zrotation Yrotation Xrotation
				JOINT Head
				{
					OFFSET 0.000000 -0.363272 2.815356
					CHANNELS 6 Xposition Yposition Zposition Zrotation Yrotation Xrotation
					End Site
					{
						OFFSET 0.000000 -0.000001 3.632717
					}
				}
			}
			JOINT LeftShoulder
			{
				OFFSET 0.731535 0.096024 3.575184
				CHANNELS 6 Xposition Yposition Zposition Zrotation Yrotation Xrotation
				JOINT LeftArm
				{
					OFFSET 2.610319 0.000000 0.000000
					CHANNELS 6 Xposition Yposition Zposition Zrotation Yrotation Xrotation
					JOINT LeftForeArm
					{
						OFFSET 5.118421 0.000000 0.000000
						CHANNELS 6 Xposition Yposition Zposition Zrotation Yrotation Xrotation
						JOINT LeftHand
						{
							OFFSET 4.756909 0.000000 0.000000
							CHANNELS 6 Xposition Yposition Zposition Zrotation Yrotation Xrotation
							End Site
							{
								OFFSET 2.724539 0.000000 0.000000
							}
						}
					}
				}
			}
			JOINT RightShoulder
			{
				OFFSET -0.721442 0.096024 3.575184
				CHANNELS 6 Xposition Yposition Zposition Zrotation Yrotation Xrotation
				JOINT RightArm
				{
					OFFSET -2.610319 0.000000 0.000000
					CHANNELS 6 Xposition Yposition Zposition Zrotation Yrotation Xrotation
					JOINT RightForeArm
					{
						OFFSET -5.118422 0.000000 0.000000
						CHANNELS 6 Xposition Yposition Zposition Zrotation Yrotation Xrotation
						JOINT RightHand
						{
							OFFSET -4.756909 0.000000 0.000000
							CHANNELS 6 Xposition Yposition Zposition Zrotation Yrotation Xrotation
							End Site
							{
								OFFSET -2.724539 0.000000 0.000000
							}
						}
					}
				}
			}
		}
	}
	JOINT LeftUpLeg
	{
		OFFSET 1.816359 0.000000 0.000000
		CHANNELS 6 Xposition Yposition Zposition Zrotation Yrotation Xrotation
		JOINT LeftLeg
		{
			OFFSET 0.000000 0.000001 -7.638974
			CHANNELS 6 Xposition Yposition Zposition Zrotation Yrotation Xrotation
			JOINT LeftFoot
			{
				OFFSET 0.000000 0.000001 -8.008609
				CHANNELS 6 Xposition Yposition Zposition Zrotation Yrotation Xrotation
				JOINT LeftToeBase
				{
					OFFSET 0.000000 -2.724539 -1.180634
					CHANNELS 6 Xposition Yposition Zposition Zrotation Yrotation Xrotation
					End Site
					{
						OFFSET 0.000000 -0.726544 0.000000
					}
				}
			}
		}
	}
	JOINT RightUpLeg
	{
		OFFSET -1.816359 0.000000 0.000000
		CHANNELS 6 Xposition Yposition Zposition Zrotation Yrotation Xrotation
		JOINT RightLeg
		{
			OFFSET 0.000000 0.000001 -7.638974
			CHANNELS 6 Xposition Yposition Zposition Zrotation Yrotation Xrotation
			JOINT RightFoot
			{
				OFFSET 0.000000 0.000001 -8.008609
				CHANNELS 6 Xposition Yposition Zposition Zrotation Yrotation Xrotation
				JOINT RightToeBase
				{
					OFFSET 0.000000 -2.724539 -1.180634
					CHANNELS 6 Xposition Yposition Zposition Zrotation Yrotation Xrotation
					End Site
					{
						OFFSET 0.000000 -0.726544 0.000000
					}
				}
			}
		}
	}
}
MOTION
Frames: 5
Frame Time: 0.041667
1.266585 0.147483 16.001276 1.122050 -0.805472 3.667095 0.000000 -0.000000 1.489414 -2.289030 1.334240 -18.306737 -0.000000 -0.000002 4.064483 -1.462054 -4.660303 18.439918 -0.000000 -0.000001 4.427755 4.195300 -6.517187 9.402155 0.000001 -0.363272 2.815359 6.653726 5.034260 6.258849 0.731535 0.096024 3.575188 3.306517 -20.634756 -9.392035 2.610321 0.000000 0.000002 -11.231146 14.166659 -2.384171 5.118421 -0.000000 -0.000002 -8.521174 -6.386684 -8.548812 4.756912 -0.000001 0.000002 -1.856996 7.098225 -9.140899 -0.721442 0.096024 3.575186 -11.009415 17.038931 -5.550911 -2.610319 -0.000001 -0.000002 20.476262 -8.811591 27.068975 -5.118419 -0.000001 -0.000001 105.486063 33.096853 48.429982 -4.756911 0.000001 0.000002 4.604490 34.204740 7.172347 1.816359 -0.000000 -0.000000 -2.115983 2.248882 -6.986425 -0.000000 0.000001 -7.638973 1.569969 -1.343041 13.525335 -0.000000 0.000001 -8.008608 21.657338 -0.551407 -6.174434 -0.000001 -2.724539 -1.180634 -0.000002 0.000001 0.000001 -1.816359 -0.000000 0.000000 0.892462 -1.137976 -5.845753 0.000000 0.000001 -7.638973 -1.140302 -1.675545 12.807406 -0.000000 0.000001 -8.008610 -20.909731 -3.362372 -11.766777 0.000000 -2.724539 -1.180634 0.000001 -0.000001 -0.000001 
1.272045 0.150490 16.002228 1.123734 -0.830226 3.740617 -0.000000 -0.000000 1.489413 -2.286521 1.336595 -18.277397 0.000000 -0.000002 4.064483 -1.454641 -4.642469 18.354446 0.000000 -0.000000 4.427752 4.218249 -6.505205 9.362715 -0.000000 -0.363274 2.815359 6.672030 5.034341 6.247443 0.731535 0.096024 3.575184 3.326837 -20.611438 -9.374734 2.610319 -0.000000 -0.000003 -11.267623 14.170658 -2.514396 5.118423 -0.000000 0.000002 -8.525834 -6.357900 -8.497410 4.756910 -0.000000 0.000003 -1.851958 7.107426 -9.087427 -0.721442 0.096025 3.575185 -10.975103 17.065033 -5.537257 -2.610319 -0.000000 -0.000002 20.401051 -8.850816 27.122717 -5.118419 -0.000002 -0.000002 105.602641 33.148295 48.517637 -4.756909 0.000003 0.000002 4.514782 34.211605 7.086619 1.816359 0.000000 -0.000001 -2.127550 2.268753 -7.572410 0.000000 0.000001 -7.638974 1.284705 -1.225824 14.517871 -0.000000 0.000001 -8.008609 21.962794 -0.500243 -6.489772 -0.000000 -2.724539 -1.180634 0.000000 0.000001 0.000002 -1.816359 0.000000 -0.000001 0.901578 -1.043402 -5.937813 0.000000 0.000001 -7.638975 -1.139925 -1.770325 12.832405 -0.000000 0.000001 -8.008608 -20.926340 -3.346508 -11.778925 -0.000000 -2.724539 -1.180633 0.000002 0.000001 -0.000000 
1.278333 0.154317 16.003475 1.141427 -0.855757 3.814956 -0.000000 -0.000000 1.489415 -2.293814 1.337906 -18.225229 0.000000 -0.000001 4.064483 -1.449797 -4.624518 18.246939 -0.000000 -0.000001 4.427752 4.241264 -6.473655 9.301221 -0.000000 -0.363272 2.815351 6.682068 5.010032 6.260996 0.731535 0.096024 3.575182 3.337391 -20.596574 -9.357115 2.610318 0.000000 -0.000001 -11.269338 14.194274 -2.533607 5.118423 -0.000000 -0.000001 -8.549716 -6.360771 -8.510060 4.756914 0.000001 -0.000002 -1.846073 7.093234 -9.101033 -0.721442 0.096024 3.575181 -10.981737 17.075835 -5.547148 -2.610318 -0.000000 -0.000007 20.373092 -8.866853 27.161676 -5.118419 -0.000001 0.000001 105.690450 33.180069 48.603315 -4.756908 0.000000 -0.000000 4.471760 34.177382 7.056169 1.816359 -0.000000 0.000000 -2.108597 2.296869 -8.218875 -0.000000 0.000001 -7.638974 1.051001 -1.130126 15.633033 0.000000 0.000001 -8.008609 22.123814 -0.614086 -6.950146 -0.000000 -2.724539 -1.180634 -0.000001 -0.000000 -0.000001 -1.816359 -0.000000 0.000001 0.911633 -0.943796 -6.033747 -0.000000 0.000001 -7.638976 -1.184100 -1.863996 12.851684 -0.000000 0.000001 -8.008608 -20.931268 -3.347921 -11.773986 -0.000000 -2.724539 -1.180634 0.000002 -0.000000 0.000001 
1.285880 0.158497 16.004795 1.188991 -0.882608 3.885606 0.000000 -0.000000 1.489416 -2.314703 1.312648 -18.165897 0.000000 -0.000001 4.064483 -1.444041 -4.564429 18.138413 -0.000000 -0.000001 4.427757 4.259523 -6.455970 9.247433 0.000000 -0.363273 2.815355 6.691129 4.999487 6.239155 0.731535 0.096024 3.575184 3.356565 -20.598951 -9.321039 2.610320 0.000000 -0.000001 -11.296399 14.217005 -2.583221 5.118423 -0.000000 -0.000000 -8.552346 -6.364177 -8.522628 4.756910 0.000001 0.000003 -1.805530 7.116359 -9.111847 -0.721442 0.096024 3.575190 -10.987221 17.073810 -5.521625 -2.610320 -0.000000 -0.000001 20.357392 -8.857943 27.045869 -5.118419 -0.000002 -0.000001 105.750521 33.233276 47.988212 -4.756910 0.000001 -0.000000 7.965837 32.568914 7.287195 1.816359 -0.000000 0.000002 -2.194569 2.316105 -8.927770 -0.000000 0.000001 -7.638974 0.694587 -0.961667 16.881871 0.000000 0.000001 -8.008608 22.528044 -0.502370 -7.563615 0.000000 -2.724538 -1.180634 -0.000001 -0.000001 0.000001 -1.816359 -0.000000 0.000002 0.920296 -0.836030 -6.127975 0.000000 0.000001 -7.638971 -1.606489 -1.877256 12.874676 -0.000000 0.000001 -8.008610 -20.579488 -3.323061 -11.758874 -0.000000 -2.724539 -1.180634 -0.000000 0.000000 0.000000 
1.293861 0.162593 16.006151 1.248325 -0.896987 3.959467 0.000000 -0.000000 1.489415 -2.324622 1.285867 -18.115434 -0.000000 -0.000001 4.064482 -1.438082 -4.519634 18.047909 -0.000000 -0.000001 4.427753 4.253262 -6.442689 9.178875 -0.000000 -0.363272 2.815355 6.678028 5.002086 6.220560 0.731534 0.096024 3.575184 3.330140 -20.590194 -9.272750 2.610322 -0.000000 0.000001 -11.304459 14.226307 -2.630769 5.118422 -0.000001 -0.000002 -8.551945 -6.387490 -8.513467 4.756911 -0.000000 0.000002 -1.844878 7.146774 -9.107350 -0.721442 0.096024 3.575184 -10.978928 17.072203 -5.556780 -2.610319 -0.000000 0.000001 20.288845 -8.851015 27.023222 -5.118420 0.000000 0.000001 105.819451 33.037383 48.637456 -4.756910 0.000000 -0.000001 4.337568 34.277229 7.139560 1.816359 -0.000000 0.000001 -2.205214 2.360830 -9.655736 0.000000 0.000001 -7.638974 0.431443 -0.847681 18.221606 0.000000 0.000001 -8.008608 22.721377 -0.440872 -8.278089 -0.000000 -2.724539 -1.180634 0.000001 -0.000000 0.000002 -1.816359 -0.000000 -0.000000 0.930645 -0.738698 -6.228787 0.000000 0.000001 -7.638973 -1.660346 -1.975916 12.913514 -0.000000 0.000001 -8.008608 -20.607830 -3.348942 -11.753673 -0.000000 -2.724539 -1.180633 -0.000001 0.000001 -0.000000 
